<svg xmlns="http://www.w3.org/2000/svg" viewBox="0 0 890 130" width="890" height="130">
<defs>
  <style>
    @keyframes scroll { from{transform:translateX(0)} to{transform:translateX(-445px)} }
    @keyframes scrollFast { from{transform:translateX(0)} to{transform:translateX(-890px)} }
    @keyframes blink { 0%,49%{opacity:1} 50%,100%{opacity:0} }
    /* robot run: legs alternate */
    @keyframes legL { 0%,100%{transform:rotate(-30deg)} 50%{transform:rotate(30deg)} }
    @keyframes legR { 0%,100%{transform:rotate(30deg)}  50%{transform:rotate(-30deg)} }
    @keyframes armL { 0%,100%{transform:rotate(25deg)}  50%{transform:rotate(-25deg)} }
    @keyframes armR { 0%,100%{transform:rotate(-25deg)} 50%{transform:rotate(25deg)} }
    @keyframes bobY { 0%,100%{transform:translateY(0)} 50%{transform:translateY(-3px)} }
    /* transform sequence: robot visible 0-65%, flash 65-75%, car visible 75-100% */
    @keyframes showRobot { 0%,64%{opacity:1;transform:translateX(0)} 65%,66%{opacity:0} 67%,68%{opacity:1} 69%,100%{opacity:0} }
    @keyframes showCar   { 0%,64%{opacity:0} 65%,66%{opacity:1} 67%,68%{opacity:0} 69%,100%{opacity:1} }
    @keyframes flash     { 0%,63%{opacity:0} 64%,70%{opacity:1} 71%,100%{opacity:0} }
    .bg-city  { animation: scroll 8s linear infinite; }
    .bg-far   { animation: scroll 16s linear infinite; }
    .ground   { animation: scrollFast 3s linear infinite; }
    .blink    { animation: blink 0.8s step-end infinite; }
    .robot    { animation: showRobot 6s steps(1,end) infinite; }
    .car      { animation: showCar   6s steps(1,end) infinite; }
    .flash    { animation: flash     6s steps(1,end) infinite; }
    .bobY     { animation: bobY .25s steps(1,end) infinite; transform-box:fill-box; transform-origin:bottom center; }
    .legL     { animation: legL .25s steps(1,end) infinite; transform-box:fill-box; transform-origin:top center; }
    .legR     { animation: legR .25s steps(1,end) infinite; transform-box:fill-box; transform-origin:top center; }
    .armL     { animation: armL .25s steps(1,end) infinite; transform-box:fill-box; transform-origin:top center; }
    .armR     { animation: armR .25s steps(1,end) infinite; transform-box:fill-box; transform-origin:top center; }
  </style>
</defs>

<!-- Sky -->
<rect width="890" height="130" fill="#0a0a1a"/>

<!-- Stars (static) -->
<rect x="40"  y="6"  width="2" height="2" fill="#fff" opacity=".7"/>
<rect x="120" y="10" width="2" height="2" fill="#fff" opacity=".5"/>
<rect x="220" y="4"  width="2" height="2" fill="#fff" opacity=".6"/>
<rect x="350" y="8"  width="2" height="2" fill="#fff" opacity=".5"/>
<rect x="500" y="5"  width="2" height="2" fill="#fff" opacity=".7"/>
<rect x="640" y="9"  width="2" height="2" fill="#fff" opacity=".4"/>
<rect x="780" y="6"  width="2" height="2" fill="#fff" opacity=".6"/>
<rect x="860" y="12" width="2" height="2" fill="#fff" opacity=".5"/>

<!-- Moon -->
<rect x="30" y="8" width="16" height="16" fill="#ffffcc" rx="2"/>
<rect x="32" y="8" width="2"  height="2"  fill="#0a0a1a"/>
<rect x="34" y="8" width="2"  height="2"  fill="#0a0a1a"/>
<rect x="36" y="8" width="6"  height="2"  fill="#0a0a1a"/>

<!-- Far buildings (slow scroll, 2 copies side by side) -->
<g class="bg-far">
  <!-- copy 1 -->
  <rect x="0"   y="28" width="28" height="72" fill="#111130"/>
  <rect x="6"   y="22" width="16" height="6"  fill="#111130"/>
  <rect x="32"  y="38" width="22" height="62" fill="#0e0e28"/>
  <rect x="60"  y="18" width="34" height="82" fill="#13133a"/>
  <rect x="68"  y="10" width="18" height="8"  fill="#13133a"/>
  <rect x="98"  y="32" width="26" height="68" fill="#111130"/>
  <rect x="128" y="24" width="32" height="76" fill="#0e0e28"/>
  <rect x="164" y="36" width="20" height="64" fill="#13133a"/>
  <rect x="188" y="20" width="30" height="80" fill="#111130"/>
  <rect x="192" y="14" width="22" height="6"  fill="#111130"/>
  <rect x="222" y="30" width="24" height="70" fill="#0e0e28"/>
  <rect x="250" y="42" width="18" height="58" fill="#13133a"/>
  <rect x="272" y="26" width="28" height="74" fill="#111130"/>
  <rect x="304" y="16" width="36" height="84" fill="#0e0e28"/>
  <rect x="310" y="8"  width="24" height="8"  fill="#0e0e28"/>
  <rect x="344" y="34" width="22" height="66" fill="#13133a"/>
  <rect x="370" y="22" width="30" height="78" fill="#111130"/>
  <rect x="404" y="38" width="24" height="62" fill="#0e0e28"/>
  <rect x="432" y="28" width="16" height="72" fill="#13133a"/>
  <!-- copy 2 (offset 445) -->
  <rect x="445" y="28" width="28" height="72" fill="#111130"/>
  <rect x="451" y="22" width="16" height="6"  fill="#111130"/>
  <rect x="477" y="38" width="22" height="62" fill="#0e0e28"/>
  <rect x="505" y="18" width="34" height="82" fill="#13133a"/>
  <rect x="513" y="10" width="18" height="8"  fill="#13133a"/>
  <rect x="543" y="32" width="26" height="68" fill="#111130"/>
  <rect x="573" y="24" width="32" height="76" fill="#0e0e28"/>
  <rect x="609" y="36" width="20" height="64" fill="#13133a"/>
  <rect x="633" y="20" width="30" height="80" fill="#111130"/>
  <rect x="637" y="14" width="22" height="6"  fill="#111130"/>
  <rect x="667" y="30" width="24" height="70" fill="#0e0e28"/>
  <rect x="695" y="42" width="18" height="58" fill="#13133a"/>
  <rect x="717" y="26" width="28" height="74" fill="#111130"/>
  <rect x="749" y="16" width="36" height="84" fill="#0e0e28"/>
  <rect x="755" y="8"  width="24" height="8"  fill="#0e0e28"/>
  <rect x="789" y="34" width="22" height="66" fill="#13133a"/>
  <rect x="815" y="22" width="30" height="78" fill="#111130"/>
  <rect x="849" y="38" width="24" height="62" fill="#0e0e28"/>
  <rect x="877" y="28" width="16" height="72" fill="#13133a"/>
</g>

<!-- Neon windows (blinking, far) -->
<rect x="66"  y="36" width="4" height="4" fill="#00ffff" opacity=".4"/>
<rect x="74"  y="36" width="4" height="4" fill="#00ffff" opacity=".4"/>
<rect x="66"  y="46" width="4" height="4" fill="#ff00ff" opacity=".3" class="blink"/>
<rect x="196" y="28" width="4" height="4" fill="#00ffff" opacity=".3"/>
<rect x="308" y="24" width="4" height="4" fill="#ffff00" opacity=".35" class="blink"/>
<rect x="376" y="36" width="4" height="4" fill="#ff00ff" opacity=".3"/>

<!-- Near buildings (medium scroll, 2 copies) -->
<g class="bg-city">
  <!-- copy 1 -->
  <rect x="0"   y="52" width="36" height="68" fill="#1a1a40"/>
  <rect x="6"   y="44" width="24" height="8"  fill="#1a1a40"/>
  <rect x="40"  y="60" width="28" height="60" fill="#141430"/>
  <rect x="72"  y="46" width="44" height="74" fill="#1e1e4a"/>
  <rect x="80"  y="38" width="28" height="8"  fill="#1e1e4a"/>
  <rect x="120" y="56" width="32" height="64" fill="#1a1a40"/>
  <rect x="156" y="42" width="38" height="78" fill="#141430"/>
  <rect x="160" y="34" width="30" height="8"  fill="#141430"/>
  <rect x="198" y="58" width="30" height="62" fill="#1e1e4a"/>
  <rect x="232" y="48" width="42" height="72" fill="#1a1a40"/>
  <rect x="238" y="40" width="30" height="8"  fill="#1a1a40"/>
  <rect x="278" y="54" width="34" height="66" fill="#141430"/>
  <rect x="316" y="44" width="40" height="76" fill="#1e1e4a"/>
  <rect x="322" y="36" width="28" height="8"  fill="#1e1e4a"/>
  <rect x="360" y="60" width="28" height="60" fill="#1a1a40"/>
  <rect x="392" y="50" width="36" height="70" fill="#141430"/>
  <rect x="432" y="56" width="16" height="64" fill="#1e1e4a"/>
  <!-- copy 2 (offset 445) -->
  <rect x="445" y="52" width="36" height="68" fill="#1a1a40"/>
  <rect x="451" y="44" width="24" height="8"  fill="#1a1a40"/>
  <rect x="485" y="60" width="28" height="60" fill="#141430"/>
  <rect x="517" y="46" width="44" height="74" fill="#1e1e4a"/>
  <rect x="525" y="38" width="28" height="8"  fill="#1e1e4a"/>
  <rect x="565" y="56" width="32" height="64" fill="#1a1a40"/>
  <rect x="601" y="42" width="38" height="78" fill="#141430"/>
  <rect x="605" y="34" width="30" height="8"  fill="#141430"/>
  <rect x="643" y="58" width="30" height="62" fill="#1e1e4a"/>
  <rect x="677" y="48" width="42" height="72" fill="#1a1a40"/>
  <rect x="683" y="40" width="30" height="8"  fill="#1a1a40"/>
  <rect x="723" y="54" width="34" height="66" fill="#141430"/>
  <rect x="761" y="44" width="40" height="76" fill="#1e1e4a"/>
  <rect x="767" y="36" width="28" height="8"  fill="#1e1e4a"/>
  <rect x="805" y="60" width="28" height="60" fill="#1a1a40"/>
  <rect x="837" y="50" width="36" height="70" fill="#141430"/>
  <rect x="877" y="56" width="16" height="64" fill="#1e1e4a"/>
</g>

<!-- Neon windows near buildings -->
<rect x="8"   y="58" width="6" height="6" fill="#00ffff" opacity=".6"/>
<rect x="18"  y="58" width="6" height="6" fill="#00ffff" opacity=".6"/>
<rect x="8"   y="68" width="6" height="6" fill="#ff00ff" opacity=".5" class="blink"/>
<rect x="18"  y="68" width="6" height="6" fill="#ff00ff" opacity=".5"/>
<rect x="82"  y="48" width="6" height="6" fill="#ffff00" opacity=".55"/>
<rect x="92"  y="48" width="6" height="6" fill="#ffff00" opacity=".55" class="blink"/>
<rect x="82"  y="58" width="6" height="6" fill="#00ffff" opacity=".5"/>
<rect x="162" y="44" width="6" height="6" fill="#ff00ff" opacity=".5"/>
<rect x="172" y="44" width="6" height="6" fill="#ff00ff" opacity=".5" class="blink"/>
<rect x="240" y="50" width="6" height="6" fill="#00ffff" opacity=".55"/>
<rect x="324" y="46" width="6" height="6" fill="#ffff00" opacity=".5"/>
<rect x="334" y="46" width="6" height="6" fill="#ffff00" opacity=".5" class="blink"/>

<!-- Road surface -->
<rect x="0" y="110" width="890" height="20" fill="#1c1c1c"/>
<rect x="0" y="110" width="890" height="2"  fill="#333"/>

<!-- Road dashes (scrolling) -->
<g class="ground">
  <rect x="0"   y="118" width="40" height="4" fill="#ffff00" opacity=".6" rx="1"/>
  <rect x="80"  y="118" width="40" height="4" fill="#ffff00" opacity=".6" rx="1"/>
  <rect x="160" y="118" width="40" height="4" fill="#ffff00" opacity=".6" rx="1"/>
  <rect x="240" y="118" width="40" height="4" fill="#ffff00" opacity=".6" rx="1"/>
  <rect x="320" y="118" width="40" height="4" fill="#ffff00" opacity=".6" rx="1"/>
  <rect x="400" y="118" width="40" height="4" fill="#ffff00" opacity=".6" rx="1"/>
  <rect x="480" y="118" width="40" height="4" fill="#ffff00" opacity=".6" rx="1"/>
  <rect x="560" y="118" width="40" height="4" fill="#ffff00" opacity=".6" rx="1"/>
  <rect x="640" y="118" width="40" height="4" fill="#ffff00" opacity=".6" rx="1"/>
  <rect x="720" y="118" width="40" height="4" fill="#ffff00" opacity=".6" rx="1"/>
  <rect x="800" y="118" width="40" height="4" fill="#ffff00" opacity=".6" rx="1"/>
  <rect x="880" y="118" width="40" height="4" fill="#ffff00" opacity=".6" rx="1"/>
</g>

<!-- Score HUD -->
<text x="8" y="12" font-family="monospace" font-size="8" fill="#00ffff" letter-spacing="1">SCORE: 9999</text>
<text x="400" y="12" font-family="monospace" font-size="8" fill="#ffff00" text-anchor="middle" letter-spacing="2">TRANSFORMBOT</text>
<text x="882" y="12" font-family="monospace" font-size="8" fill="#ff00ff" text-anchor="end">1UP</text>

<!-- ═══════════════════════════════ -->
<!--  ROBOT  (pixel art, 8px grid) -->
<!-- ═══════════════════════════════ -->
<!-- Robot sits at x=200, feet at y=110 -->
<g class="robot">
  <g class="bobY">
    <!-- HEAD -->
    <rect x="190" y="42" width="28" height="20" fill="#44aaff" rx="2"/>
    <!-- Visor -->
    <rect x="194" y="46" width="20" height="8"  fill="#001830"/>
    <!-- Visor glow -->
    <rect x="196" y="48" width="6"  height="4"  fill="#00ffff" opacity=".9"/>
    <rect x="206" y="48" width="6"  height="4"  fill="#00ffff" opacity=".9"/>
    <!-- Head antenna -->
    <rect x="202" y="36" width="4"  height="6"  fill="#44aaff"/>
    <rect x="200" y="34" width="8"  height="4"  fill="#ff4444"/>

    <!-- TORSO -->
    <rect x="186" y="62" width="36" height="26" fill="#2288dd" rx="1"/>
    <!-- Chest panel -->
    <rect x="190" y="65" width="28" height="12" fill="#003366"/>
    <rect x="192" y="67" width="6"  height="4"  fill="#00ffff" opacity=".7"/>
    <rect x="200" y="67" width="4"  height="4"  fill="#ff4444" opacity=".8"/>
    <rect x="206" y="67" width="6"  height="4"  fill="#ffff00" opacity=".7"/>
    <!-- Shoulder pads -->
    <rect x="178" y="62" width="10" height="10" fill="#1166bb" rx="1"/>
    <rect x="220" y="62" width="10" height="10" fill="#1166bb" rx="1"/>

    <!-- ARM LEFT (swings) -->
    <g class="armL">
      <rect x="173" y="72" width="8" height="18" fill="#2288dd" rx="1"/>
      <rect x="171" y="88" width="10" height="8"  fill="#1166bb" rx="1"/>
    </g>
    <!-- ARM RIGHT -->
    <g class="armR">
      <rect x="227" y="72" width="8" height="18" fill="#2288dd" rx="1"/>
      <rect x="227" y="88" width="10" height="8"  fill="#1166bb" rx="1"/>
    </g>

    <!-- HIPS -->
    <rect x="189" y="88" width="30" height="8" fill="#1166bb" rx="1"/>

    <!-- LEG LEFT -->
    <g class="legL">
      <rect x="189" y="96" width="12" height="16" fill="#2288dd" rx="1"/>
      <!-- Foot -->
      <rect x="187" y="108" width="16" height="6"  fill="#1166bb" rx="1"/>
    </g>
    <!-- LEG RIGHT -->
    <g class="legR">
      <rect x="207" y="96" width="12" height="16" fill="#2288dd" rx="1"/>
      <rect x="205" y="108" width="16" height="6"  fill="#1166bb" rx="1"/>
    </g>
  </g>
</g>

<!-- ═══════════════════════════════ -->
<!--  TRANSFORM FLASH               -->
<!-- ═══════════════════════════════ -->
<rect x="150" y="30" width="120" height="90" fill="#ffffff" opacity=".9" class="flash" rx="4"/>

<!-- ═══════════════════════════════ -->
<!--  CAR (pixel art, same x pos)  -->
<!-- ═══════════════════════════════ -->
<g class="car">
  <!-- Body low -->
  <rect x="156" y="90"  width="100" height="16" fill="#ff2222" rx="2"/>
  <!-- Cabin -->
  <rect x="172" y="76"  width="68"  height="16" fill="#ff4444" rx="2"/>
  <!-- Windshield front -->
  <rect x="230" y="78"  width="14"  height="12" fill="#001830" rx="1"/>
  <rect x="232" y="80"  width="10"  height="8"  fill="#00ccff" opacity=".6"/>
  <!-- Windshield rear -->
  <rect x="168" y="78"  width="12"  height="12" fill="#001830" rx="1"/>
  <rect x="170" y="80"  width="8"   height="8"  fill="#00ccff" opacity=".6"/>
  <!-- Headlights -->
  <rect x="250" y="94"  width="10"  height="6"  fill="#ffff88" rx="1"/>
  <rect x="252" y="95"  width="6"   height="4"  fill="#ffffff"/>
  <!-- Tail lights -->
  <rect x="152" y="94"  width="8"   height="6"  fill="#ff0000" rx="1"/>
  <!-- Wheels -->
  <rect x="162" y="102" width="20"  height="14" fill="#111" rx="3"/>
  <rect x="166" y="104" width="12"  height="10" fill="#333" rx="2"/>
  <rect x="170" y="107" width="4"   height="4"  fill="#888" rx="1"/>
  <rect x="226" y="102" width="20"  height="14" fill="#111" rx="3"/>
  <rect x="230" y="104" width="12"  height="10" fill="#333" rx="2"/>
  <rect x="234" y="107" width="4"   height="4"  fill="#888" rx="1"/>
  <!-- Exhaust smoke pixel puffs -->
  <rect x="142" y="96" width="8" height="6" fill="#888" opacity=".5" rx="1"/>
  <rect x="134" y="94" width="6" height="6" fill="#666" opacity=".35" rx="1"/>
  <rect x="126" y="92" width="6" height="6" fill="#444" opacity=".2" rx="1"/>
</g>

</svg>
